<svg xmlns="http://www.w3.org/2000/svg" viewBox="0 0 330.277 396.798"><defs><style>.cls-1{fill:#ffba21;}.cls-2{fill:#ff8b00;}.cls-3{fill:#64a0fa;}.cls-4{fill:#fff;}</style></defs><g id="Layer_1" data-name="Layer 1"><path class="cls-1" d="M374.013,435.916H145.158c-14.611,0-26.406-10.72-26.406-24v-304c0-13.28,11.8-24,26.406-24H303.6l96.823,88v240C400.42,425.2,388.625,435.916,374.013,435.916Z" transform="translate(-118.752 -83.916)"/><path class="cls-2" d="M303.6,83.916l96.823,88H303.6Z" transform="translate(-118.752 -83.916)"/></g><g id="Layer_4" data-name="Layer 4"><g id="Layer_2" data-name="Layer 2"><circle class="cls-3" cx="256.288" cy="322.808" r="73.99"/></g><g id="Layer_3" data-name="Layer 3"><path class="cls-4" d="M421.656,384.92,367.167,439.4a7.668,7.668,0,0,1-5.3,2.268,6.694,6.694,0,0,1-5.3-1.941l-28.447-28.441a6.706,6.706,0,0,1,9.487-9.481l22.682,22.687,50.467-50.487a7.712,7.712,0,1,1,10.9,10.913Z" transform="translate(-118.752 -83.916)"/></g></g></svg>